<?xml version="1.0" encoding="UTF-8" standalone="no"?>
<svg width="44px" height="49px" viewBox="0 0 44 49" version="1.1" xmlns="http://www.w3.org/2000/svg" xmlns:xlink="http://www.w3.org/1999/xlink" xmlns:sketch="http://www.bohemiancoding.com/sketch/ns">
    <!-- Generator: Sketch 3.1.1 (8761) - http://www.bohemiancoding.com/sketch -->
    <title>42</title>
    <desc>Created with Sketch.</desc>
    <defs></defs>
    <g id="Page-1" stroke="none" stroke-width="1" fill="none" fill-rule="evenodd" sketch:type="MSPage">
        <g id="42" sketch:type="MSLayerGroup" transform="translate(1.000000, 1.000000)">
            <path d="M21.2417453,48.0099038 C20.2633698,48.0099038 19.2973954,47.7474384 18.449557,47.2510798 L2.78314885,38.077416 C1.05483785,37.0647647 -0.0214404092,35.1743494 -0.0240511509,33.1443955 L-0.0534219949,14.7452393 C-0.056685422,12.7152854 1.01306598,10.8215478 2.73811355,9.80291628 L18.3751509,0.578088332 C20.074091,-0.423931444 22.2736409,-0.42791826 23.9758445,0.568785761 L39.6416,9.74244957 C41.3705637,10.7544364 42.4461893,12.6448517 42.4494527,14.67547 L42.4788235,33.0746262 C42.482087,35.1045801 41.4123355,36.9983177 39.6866353,38.0162848 L24.049598,47.2417772 C23.1971908,47.744116 22.2266476,48.0099038 21.2417453,48.0099038 L21.2417453,48.0099038 Z" id="Path-2" fill="#FFFFFF" sketch:type="MSShapeGroup"></path>
            <path d="M21.2417453,48.0099038 C20.2633698,48.0099038 19.2973954,47.7474384 18.449557,47.2510798 L2.78314885,38.077416 C1.05483785,37.0647647 -0.0214404092,35.1743494 -0.0240511509,33.1443955 L-0.0534219949,14.7452393 C-0.056685422,12.7152854 1.01306598,10.8215478 2.73811355,9.80291628 L18.3751509,0.578088332 C20.074091,-0.423931444 22.2736409,-0.42791826 23.9758445,0.568785761 L39.6416,9.74244957 C41.3705637,10.7544364 42.4461893,12.6448517 42.4494527,14.67547 L42.4788235,33.0746262 C42.482087,35.1045801 41.4123355,36.9983177 39.6866353,38.0162848 L24.049598,47.2417772 C23.1971908,47.744116 22.2266476,48.0099038 21.2417453,48.0099038 L21.2417453,48.0099038 Z M21.1836563,3.13164403 C20.7724645,3.13164403 20.3671468,3.24261042 20.0114332,3.45258273 L4.37439591,12.6780751 C3.65513657,13.1026711 3.20869974,13.8927251 3.21000512,14.7399235 L3.23937596,33.1397442 C3.24002864,33.9862782 3.68907621,34.7750033 4.41029361,35.1976058 L20.0767018,44.3712696 C20.7868235,44.786563 21.7044992,44.785234 22.4133156,44.3672828 L38.0503529,35.1417904 C38.770265,34.7171945 39.2167018,33.9271404 39.2153964,33.079942 L39.1860256,14.6807858 C39.1847202,13.8335873 38.7356726,13.0448622 38.0144552,12.6222597 L22.3480471,3.44859591 C21.9942916,3.24128148 21.5915847,3.13164403 21.1836563,3.13164403 L21.1836563,3.13164403 Z" id="Fill-2" fill="#D24335" sketch:type="MSShapeGroup"></path>
            <path d="M8.02551816,24.9521529 L14.0941872,15.1910982 L18.8000491,15.1910982 L18.8000491,24.0790402 L20.6693402,24.0790402 L20.6693402,27.324973 L18.8000491,27.324973 L18.8000491,31.1981648 L14.9961985,31.1981648 L14.9961985,27.324973 L8.02551816,27.324973 L8.02551816,24.9521529 L8.02551816,24.9521529 Z M14.9961985,24.0790402 L14.9961985,20.496886 C14.9961985,19.6237732 15.1280409,18.7061411 15.1280409,18.7061411 L15.0836583,18.7061411 C15.0836583,18.7061411 14.7540522,19.6908846 14.3141422,20.3626632 L11.9396726,24.0338563 L11.9396726,24.0790402 L14.9961985,24.0790402 L14.9961985,24.0790402 Z" id="Fill-10" fill="#D24335" sketch:type="MSShapeGroup"></path>
            <path d="M22.6704737,29.4738668 C22.6704737,23.5640765 29.4655816,22.511557 29.4655816,20.2058484 C29.4655816,19.086882 28.5857616,18.6164377 27.7718629,18.6164377 C26.2765606,18.6164377 25.4411233,20.3181437 25.4411233,20.3181437 L22.5823611,18.3699196 C22.5823611,18.3699196 24.0339335,14.9226526 28.1236604,14.9226526 C30.6965463,14.9226526 33.4893872,16.4223599 33.4893872,19.8251074 C33.4893872,24.8179301 27.1563806,25.7800817 27.0467294,27.8399367 L33.7315335,27.8399367 L33.7315335,31.1981648 L22.846046,31.1981648 C22.7363949,30.5709057 22.6704737,30.0114225 22.6704737,29.4738668" id="Fill-11" fill="#D24335" sketch:type="MSShapeGroup"></path>
        </g>
    </g>
</svg>