<?xml version="1.0" encoding="utf-8"?>
<!-- Generator: Adobe Illustrator 14.0.0, SVG Export Plug-In . SVG Version: 6.00 Build 43363)  -->
<!DOCTYPE svg PUBLIC "-//W3C//DTD SVG 1.1//EN" "http://www.w3.org/Graphics/SVG/1.1/DTD/svg11.dtd">
<svg version="1.1" id="Ebene_1" xmlns:sketch="http://www.bohemiancoding.com/sketch/ns"
	 xmlns="http://www.w3.org/2000/svg" xmlns:xlink="http://www.w3.org/1999/xlink" x="0px" y="0px" width="45.167px" height="49px"
	 viewBox="88.833 0 45.167 49" enable-background="new 88.833 0 45.167 49" xml:space="preserve">
<title>logo</title>
<desc>Created with Sketch.</desc>
<g id="Page-1" sketch:type="MSPage">
	<g id="logo" transform="translate(1.000000, 1.000000)" sketch:type="MSLayerGroup">
		<polygon fill="#FFFFFF" points="91.577,13.292 111.164,2.667 130.75,13.292 130.75,34.542 111.163,45.167 91.576,34.542 		"/>
		<path id="Fill-1" sketch:type="MSShapeGroup" fill="#D24335" stroke="#D24335" d="M111.242,48.01
			c-0.979,0-1.945-0.262-2.793-0.759l-15.666-9.174c-1.729-1.013-2.805-2.903-2.807-4.933l-0.029-18.399
			c-0.004-2.03,1.066-3.924,2.791-4.942l15.637-9.225c1.699-1.002,3.898-1.006,5.602-0.009l15.665,9.173
			c1.729,1.012,2.805,2.903,2.808,4.933l0.029,18.399c0.004,2.03-1.066,3.924-2.792,4.941l-15.637,9.227
			C113.197,47.744,112.227,48.01,111.242,48.01L111.242,48.01z M111.184,3.132c-0.411,0-0.816,0.111-1.172,0.321l-15.637,9.226
			c-0.72,0.424-1.166,1.214-1.165,2.062l0.029,18.4c0.001,0.847,0.45,1.636,1.171,2.058l15.666,9.174
			c0.711,0.416,1.629,0.414,2.337-0.004l15.638-9.226c0.72-0.425,1.166-1.214,1.164-2.062l-0.029-18.399
			c-0.001-0.847-0.449-1.636-1.171-2.059l-15.667-9.173C111.994,3.241,111.592,3.132,111.184,3.132L111.184,3.132z"/>
		<path id="Fill-2" sketch:type="MSShapeGroup" fill="#D24335" d="M-0.215,15.192h3.892l4.354,7.477
			c0.616,1.052,1.32,2.731,1.32,2.731h0.043c0,0-0.176-1.724-0.176-2.731v-7.477h3.849v16.006H9.196L4.82,23.744
			c-0.616-1.053-1.319-2.731-1.319-2.731H3.457c0,0,0.176,1.724,0.176,2.731v7.455h-3.848V15.192"/>
		<path id="Fill-3" sketch:type="MSShapeGroup" fill="#D24335" d="M16.167,19.669h3.805v6.761c0,1.074,0.417,1.522,1.209,1.522
			c1.627,0,2.396-1.455,2.396-3.179v-5.104h3.805v11.529h-3.651v-1.007c0-0.381,0.044-0.717,0.044-0.717h-0.044
			c-0.616,1.231-2.023,1.992-3.54,1.992c-2.243,0-4.024-1.074-4.024-4.32V19.669"/>
		<path id="Fill-4" sketch:type="MSShapeGroup" fill="#D24335" d="M30.196,19.669h3.651v1.007c0,0.381-0.044,0.716-0.044,0.716
			h0.044c0.527-0.806,1.583-1.992,3.364-1.992c1.43,0,2.573,0.649,3.167,1.948h0.044c0.594-0.963,1.935-1.948,3.628-1.948
			c2.067,0,3.672,1.142,3.672,4.32v7.478h-3.804V24.37c0-0.851-0.154-1.455-0.88-1.455c-1.209,0-1.847,0.896-2.089,2.171
			c-0.088,0.404-0.088,0.873-0.088,1.344v4.769h-3.804V24.37c0-0.851-0.154-1.455-0.88-1.455c-1.188,0-1.803,0.851-2.067,2.082
			c-0.088,0.426-0.11,0.94-0.11,1.433v4.769h-3.805V19.669"/>
		<path id="Fill-5" sketch:type="MSShapeGroup" fill="#D24335" d="M50.383,15.192h3.805v4.455c0,0.582-0.044,0.985-0.044,0.985
			h0.044c0,0,1.055-1.231,3.057-1.231c3.079,0,5.101,2.463,5.101,6.044c0,3.649-2.265,6.022-5.277,6.022
			c-2.089,0-3.101-1.299-3.101-1.299h-0.043c0,0,0.021,0.291,0.021,0.649v0.381h-3.562V15.192L50.383,15.192z M56.299,28.266
			c1.188,0,2.221-0.985,2.221-2.754c0-1.724-0.901-2.843-2.221-2.843c-1.144,0-2.221,0.851-2.221,2.843
			C54.078,26.9,54.803,28.266,56.299,28.266L56.299,28.266z"/>
		<path id="Fill-6" sketch:type="MSShapeGroup" fill="#D24335" d="M69.471,19.4c3.343,0,5.234,2.373,5.234,5.574
			c0,0.381-0.089,1.209-0.089,1.209h-7.146c0.285,1.41,1.429,2.06,2.638,2.06c1.628,0,3.123-1.164,3.123-1.164l1.407,2.709
			c0,0-1.825,1.679-4.838,1.679c-4.046,0-6.223-2.978-6.223-6.044C63.578,22.042,65.821,19.4,69.471,19.4L69.471,19.4z
			 M70.879,23.967c0-0.873-0.594-1.656-1.496-1.656c-1.1,0-1.627,0.806-1.825,1.656H70.879L70.879,23.967z"/>
		<path id="Fill-7" sketch:type="MSShapeGroup" fill="#D24335" d="M76.771,19.669h3.65v1.948c0,0.38-0.045,0.716-0.045,0.716h0.045
			c0.484-1.567,1.913-2.865,3.605-2.865c0.221,0,0.44,0.044,0.44,0.044v3.806c0,0-0.308-0.067-0.77-0.067
			c-0.901,0-2.375,0.291-2.925,2.015c-0.131,0.426-0.197,0.94-0.197,1.566v4.366h-3.805V19.669"/>
		<path id="Fill-8" sketch:type="MSShapeGroup" fill="#D24335" d="M98.025,24.952l6.068-9.761h4.706v8.888h1.87v3.246h-1.87v3.873
			h-3.804v-3.873h-6.971V24.952L98.025,24.952z M104.996,24.079v-3.582c0-0.873,0.132-1.791,0.132-1.791h-0.044
			c0,0-0.33,0.985-0.77,1.657l-2.375,3.67v0.046H104.996L104.996,24.079z"/>
		<path id="Fill-9" sketch:type="MSShapeGroup" fill="#D24335" d="M112.67,29.474c0-5.91,6.796-6.962,6.796-9.268
			c0-1.119-0.88-1.59-1.694-1.59c-1.495,0-2.33,1.702-2.33,1.702l-2.859-1.948c0,0,1.452-3.447,5.541-3.447
			c2.574,0,5.366,1.5,5.366,4.902c0,4.993-6.333,5.955-6.442,8.015h6.685v3.358h-10.886C112.736,30.57,112.67,30.012,112.67,29.474"
			/>
	</g>
</g>
</svg>
