<?xml version="1.0" encoding="UTF-8" standalone="no"?>
<svg width="134px" height="49px" viewBox="0 0 134 49" version="1.1" xmlns="http://www.w3.org/2000/svg" xmlns:xlink="http://www.w3.org/1999/xlink" xmlns:sketch="http://www.bohemiancoding.com/sketch/ns">
    <!-- Generator: Sketch 3.2.2 (9983) - http://www.bohemiancoding.com/sketch -->
    <title>logo</title>
    <desc>Created with Sketch.</desc>
    <defs></defs>
    <g id="Page-1" stroke="none" stroke-width="1" fill="none" fill-rule="evenodd" sketch:type="MSPage">
        <g id="logo" sketch:type="MSLayerGroup" transform="translate(1.000000, 1.000000)" fill="#D24335">
            <path d="M111.241745,48.0099038 C110.26337,48.0099038 109.297395,47.7474384 108.449557,47.2510798 L92.7831488,38.077416 C91.0548379,37.0647647 89.9785596,35.1743494 89.9759488,33.1443955 L89.946578,14.7452393 C89.9433146,12.7152854 91.013066,10.8215478 92.7381136,9.80291628 L108.375151,0.578088332 C110.074091,-0.423931444 112.273641,-0.42791826 113.975845,0.568785761 L129.6416,9.74244957 C131.370564,10.7544364 132.446189,12.6448517 132.449453,14.67547 L132.478824,33.0746262 C132.482087,35.1045801 131.412336,36.9983177 129.686635,38.0162848 L114.049598,47.2417772 C113.197191,47.744116 112.226648,48.0099038 111.241745,48.0099038 L111.241745,48.0099038 Z M111.183656,3.13164403 C110.772464,3.13164403 110.367147,3.24261042 110.011433,3.45258273 L94.3743959,12.6780751 C93.6551366,13.1026711 93.2086997,13.8927251 93.2100051,14.7399235 L93.239376,33.1397442 C93.2400286,33.9862782 93.6890762,34.7750033 94.4102936,35.1976058 L110.076702,44.3712696 C110.786824,44.786563 111.704499,44.785234 112.413316,44.3672828 L128.050353,35.1417904 C128.770265,34.7171945 129.216702,33.9271404 129.215396,33.079942 L129.186026,14.6807858 C129.18472,13.8335873 128.735673,13.0448622 128.014455,12.6222597 L112.348047,3.44859591 C111.994292,3.24128148 111.591585,3.13164403 111.183656,3.13164403 L111.183656,3.13164403 Z" id="Fill-1" sketch:type="MSShapeGroup"></path>
            <path d="M-0.215386189,15.1917627 L3.67657698,15.1917627 L8.03064143,22.6690363 C8.64677647,23.7208912 9.35037136,25.4000053 9.35037136,25.4000053 L9.39410128,25.4000053 C9.39410128,25.4000053 9.21787621,23.6763718 9.21787621,22.6690363 L9.21787621,15.1917627 L13.0667621,15.1917627 L13.0667621,31.1981648 L9.1963376,31.1981648 L4.82008184,23.7434832 C4.20459949,22.6909637 3.5010046,21.0125142 3.5010046,21.0125142 L3.45662199,21.0125142 C3.45662199,21.0125142 3.63284706,22.7361477 3.63284706,23.7434832 L3.63284706,31.1981648 L-0.215386189,31.1981648 L-0.215386189,15.1917627" id="Fill-2" sketch:type="MSShapeGroup"></path>
            <path d="M16.1670179,19.6689572 L19.9715212,19.6689572 L19.9715212,26.4299328 C19.9715212,27.5043797 20.3892399,27.952232 21.1809473,27.952232 C22.8080921,27.952232 23.5776082,26.4970442 23.5776082,24.7734107 L23.5776082,19.6689572 L27.3821115,19.6689572 L27.3821115,31.1981648 L23.7316419,31.1981648 L23.7316419,30.1908293 C23.7316419,29.8100883 23.7753719,29.4745313 23.7753719,29.4745313 L23.7316419,29.4745313 C23.1155069,30.705793 21.7083171,31.4666104 20.1914762,31.4666104 C17.9481964,31.4666104 16.1670179,30.3921635 16.1670179,27.1462307 L16.1670179,19.6689572" id="Fill-3" sketch:type="MSShapeGroup"></path>
            <path d="M30.196491,19.6689572 L33.8469606,19.6689572 L33.8469606,20.6762927 C33.8469606,21.0570336 33.8032307,21.3925906 33.8032307,21.3925906 L33.8469606,21.3925906 C34.3743304,20.5865893 35.4303754,19.4005115 37.211554,19.4005115 C38.640935,19.4005115 39.7844399,20.0496981 40.3777309,21.3480712 L40.4221136,21.3480712 C41.0154046,20.3852551 42.3566731,19.4005115 44.0503918,19.4005115 C46.1174465,19.4005115 47.7224,20.5420699 47.7224,23.7208912 L47.7224,31.1981648 L43.9185494,31.1981648 L43.9185494,24.3700778 C43.9185494,23.519557 43.7645156,22.9148899 43.0387294,22.9148899 C41.8293033,22.9148899 41.1916297,23.8105946 40.9494834,25.0863757 C40.8613708,25.4897086 40.8613708,25.9594885 40.8613708,26.4299328 L40.8613708,31.1981648 L37.0575202,31.1981648 L37.0575202,24.3700778 C37.0575202,23.519557 36.9034864,22.9148899 36.1777003,22.9148899 C34.9904655,22.9148899 34.3743304,23.7660751 34.1106455,24.9973368 C34.022533,25.4225972 34.0009944,25.937561 34.0009944,26.4299328 L34.0009944,31.1981648 L30.196491,31.1981648 L30.196491,19.6689572" id="Fill-4" sketch:type="MSShapeGroup"></path>
            <path d="M50.3833985,15.1917627 L54.1879018,15.1917627 L54.1879018,19.6463652 C54.1879018,20.2284403 54.1441719,20.6317732 54.1441719,20.6317732 L54.1879018,20.6317732 C54.1879018,20.6317732 55.2432941,19.4005115 57.2444276,19.4005115 C60.3231448,19.4005115 62.3458169,21.8630349 62.3458169,25.4445247 C62.3458169,29.0937904 60.0809985,31.4666104 57.0682026,31.4666104 C54.9796092,31.4666104 53.9679468,30.1682373 53.9679468,30.1682373 L53.9242169,30.1682373 C53.9242169,30.1682373 53.9457555,30.4592749 53.9457555,30.8174239 L53.9457555,31.1981648 L50.3833985,31.1981648 L50.3833985,15.1917627 L50.3833985,15.1917627 Z M56.2986864,28.2658616 C57.4865739,28.2658616 58.5197749,27.2804535 58.5197749,25.5116361 C58.5197749,23.7880026 57.6184164,22.6690363 56.2986864,22.6690363 C55.1551816,22.6690363 54.0782506,23.519557 54.0782506,25.5116361 C54.0782506,26.8997126 54.8033841,28.2658616 56.2986864,28.2658616 L56.2986864,28.2658616 Z" id="Fill-5" sketch:type="MSShapeGroup"></path>
            <path d="M69.4711836,19.4005115 C72.8135857,19.4005115 74.7044153,21.7733316 74.7044153,24.9747449 C74.7044153,25.3554858 74.6163028,26.1834146 74.6163028,26.1834146 L67.4700501,26.1834146 C67.7559263,27.5940831 68.8994312,28.2432696 70.1082046,28.2432696 C71.736002,28.2432696 73.2313043,27.0791193 73.2313043,27.0791193 L74.6384941,29.7881608 C74.6384941,29.7881608 72.8135857,31.4666104 69.8007898,31.4666104 C65.7547928,31.4666104 63.5774343,28.4891233 63.5774343,25.4225972 C63.5774343,22.0417772 65.8207141,19.4005115 69.4711836,19.4005115 L69.4711836,19.4005115 Z M70.8783734,23.9674094 C70.8783734,23.0942966 70.2844297,22.3108873 69.3830711,22.3108873 C68.2832962,22.3108873 67.7559263,23.1168886 67.55751,23.9674094 L70.8783734,23.9674094 L70.8783734,23.9674094 Z" id="Fill-6" sketch:type="MSShapeGroup"></path>
            <path d="M76.7714701,19.6689572 L80.4219396,19.6689572 L80.4219396,21.6165168 C80.4219396,21.9972577 80.377557,22.3328148 80.377557,22.3328148 L80.4219396,22.3328148 C80.9055795,20.765996 82.3349606,19.4676229 84.0280266,19.4676229 C84.2479816,19.4676229 84.4679366,19.5121424 84.4679366,19.5121424 L84.4679366,23.3182228 C84.4679366,23.3182228 84.1598691,23.2511114 83.6984205,23.2511114 C82.7964092,23.2511114 81.3232982,23.542149 80.7737371,25.2657825 C80.6418946,25.6910428 80.5759734,26.2060066 80.5759734,26.8326012 L80.5759734,31.1981648 L76.7714701,31.1981648 L76.7714701,19.6689572" id="Fill-7" sketch:type="MSShapeGroup"></path>
            <path d="M98.0255182,24.9521529 L104.094187,15.1910982 L108.800049,15.1910982 L108.800049,24.0790402 L110.66934,24.0790402 L110.66934,27.324973 L108.800049,27.324973 L108.800049,31.1981648 L104.996198,31.1981648 L104.996198,27.324973 L98.0255182,27.324973 L98.0255182,24.9521529 L98.0255182,24.9521529 Z M104.996198,24.0790402 L104.996198,20.496886 C104.996198,19.6237732 105.128041,18.7061411 105.128041,18.7061411 L105.083658,18.7061411 C105.083658,18.7061411 104.754052,19.6908846 104.314142,20.3626632 L101.939673,24.0338563 L101.939673,24.0790402 L104.996198,24.0790402 L104.996198,24.0790402 Z" id="Fill-8" sketch:type="MSShapeGroup"></path>
            <path d="M112.670474,29.4738668 C112.670474,23.5640765 119.465582,22.511557 119.465582,20.2058484 C119.465582,19.086882 118.585762,18.6164377 117.771863,18.6164377 C116.276561,18.6164377 115.441123,20.3181437 115.441123,20.3181437 L112.582361,18.3699196 C112.582361,18.3699196 114.033934,14.9226526 118.12366,14.9226526 C120.696546,14.9226526 123.489387,16.4223599 123.489387,19.8251074 C123.489387,24.8179301 117.156381,25.7800817 117.046729,27.8399367 L123.731534,27.8399367 L123.731534,31.1981648 L112.846046,31.1981648 C112.736395,30.5709057 112.670474,30.0114225 112.670474,29.4738668" id="Fill-9" sketch:type="MSShapeGroup"></path>
        </g>
    </g>
</svg>